<svg xmlns="http://www.w3.org/2000/svg" viewBox="0 0 400 300" width="400" height="300" role="img" aria-label="Architectural video">
  <defs>
    <linearGradient id="gv" x1="0" y1="0" x2="1" y2="1">
      <stop offset="0" stop-color="#0c1620"/>
      <stop offset="1" stop-color="#7c3aed"/>
    </linearGradient>
  </defs>
  <rect width="400" height="300" fill="url(#gv)"/>
  <g fill="#ffffff" opacity="0.08">
    <rect x="20" y="60" width="24" height="180" rx="3"/>
    <rect x="356" y="60" width="24" height="180" rx="3"/>
    <g fill="#0c1620" opacity="0.4">
      <rect x="24" y="76" width="16" height="18"/><rect x="24" y="112" width="16" height="18"/><rect x="24" y="148" width="16" height="18"/><rect x="24" y="184" width="16" height="18"/>
      <rect x="360" y="76" width="16" height="18"/><rect x="360" y="112" width="16" height="18"/><rect x="360" y="148" width="16" height="18"/><rect x="360" y="184" width="16" height="18"/>
    </g>
  </g>
  <g transform="translate(200,132)">
    <circle r="46" fill="none" stroke="#ffffff" stroke-width="6"/>
    <path d="M-14 -22 L26 0 L-14 22 Z" fill="#ffffff"/>
  </g>
  <text x="200" y="248" text-anchor="middle" font-family="Arial, Helvetica, sans-serif" font-size="17" font-weight="700" fill="#ffffff" opacity="0.92" letter-spacing="3">ARCHITECTURAL · VIDEO</text>
</svg>
